HIERARCHY
ROOT Hips
{
	OFFSET 0.000000 83.214638 0.000000
	CHANNELS 6 Xposition Yposition Zposition Xrotation Yrotation Zrotation
	JOINT Pelvis
	{
		OFFSET 0.000000 0.000000 0.000000
		CHANNELS 3 Xrotation Yrotation Zrotation
		JOINT LeftUpLeg
		{
			OFFSET 8.479700 -4.795502 -0.379100
			CHANNELS 3 Xrotation Yrotation Zrotation
			JOINT LeftLeg
			{
				OFFSET 0.024144 -32.555107 0.112900
				CHANNELS 3 Xrotation Yrotation Zrotation
				JOINT LeftFoot
				{
					OFFSET -0.024144 -32.638630 -3.012600
					CHANNELS 3 Xrotation Yrotation Zrotation
					JOINT LeftToeBase
					{
						OFFSET 0.970200 -13.225400 11.864200
						CHANNELS 3 Xrotation Yrotation Zrotation
						End Site
						{
							OFFSET 0.000000 12.319262 0.000000
						}
					}
					JOINT LFootTongue
					{
						OFFSET 1.142400 -1.059800 6.665200
						CHANNELS 3 Xrotation Yrotation Zrotation
						End Site
						{
							OFFSET 0.000000 12.319262 0.000000
						}
					}
				}
				JOINT LeftPantLeg
				{
					OFFSET 0.918482 -16.533964 -2.284700
					CHANNELS 3 Xrotation Yrotation Zrotation
					End Site
					{
						OFFSET 0.350399 24.744368 0.000000
					}
				}
			}
		}
		JOINT RightUpLeg
		{
			OFFSET -8.479700 -4.795502 -0.379100
			CHANNELS 3 Xrotation Yrotation Zrotation
			JOINT RightLeg
			{
				OFFSET -0.023144 -32.555092 0.112900
				CHANNELS 3 Xrotation Yrotation Zrotation
				JOINT RightFoot
				{
					OFFSET 0.023144 -32.638641 -3.012700
					CHANNELS 3 Xrotation Yrotation Zrotation
					JOINT RightToeBase
					{
						OFFSET -0.970200 -13.225400 11.864200
						CHANNELS 3 Xrotation Yrotation Zrotation
						End Site
						{
							OFFSET 0.000000 12.319244 0.000000
						}
					}
					JOINT RFootTongue
					{
						OFFSET -1.142200 -1.059800 6.665200
						CHANNELS 3 Xrotation Yrotation Zrotation
						End Site
						{
							OFFSET 0.000000 12.319243 0.000000
						}
					}
				}
				JOINT RightPantLeg
				{
					OFFSET -0.919482 -16.533978 -2.284800
					CHANNELS 3 Xrotation Yrotation Zrotation
					End Site
					{
						OFFSET -0.350400 24.744419 0.000000
					}
				}
			}
		}
	}
	JOINT Spine
	{
		OFFSET 0.000000 7.722000 1.166200
		CHANNELS 3 Xrotation Yrotation Zrotation
		JOINT Spine1
		{
			OFFSET 0.000000 12.024101 0.248800
			CHANNELS 3 Xrotation Yrotation Zrotation
			JOINT Spine2
			{
				OFFSET 0.000000 11.502998 -0.491200
				CHANNELS 3 Xrotation Yrotation Zrotation
				JOINT Neck
				{
					OFFSET 0.000000 18.430702 -3.123100
					CHANNELS 3 Xrotation Yrotation Zrotation
					JOINT Head
					{
						OFFSET 0.000000 9.051102 1.034000
						CHANNELS 3 Xrotation Yrotation Zrotation
						JOINT HairB
						{
							OFFSET 0.208400 24.786102 24.822300
							CHANNELS 3 Xrotation Yrotation Zrotation
							End Site
							{
								OFFSET 0.000000 32.263779 0.000000
							}
						}
						JOINT HairA
						{
							OFFSET -7.081100 24.428299 23.196600
							CHANNELS 3 Xrotation Yrotation Zrotation
							End Site
							{
								OFFSET 0.000000 32.263779 0.000000
							}
						}
						JOINT Hat
						{
							OFFSET 16.728800 15.048294 -15.439601
							CHANNELS 3 Xrotation Yrotation Zrotation
							End Site
							{
								OFFSET 0.000000 32.263779 0.000000
							}
						}
					}
				}
				JOINT LeftShoulder
				{
					OFFSET 6.197800 13.665199 -4.064700
					CHANNELS 3 Xrotation Yrotation Zrotation
					JOINT LeftArm
					{
						OFFSET 7.778100 -0.187103 -1.709300
						CHANNELS 3 Xrotation Yrotation Zrotation
						JOINT LeftForeArm
						{
							OFFSET 22.049376 0.000000 0.000000
							CHANNELS 3 Xrotation Yrotation Zrotation
							JOINT LeftHand
							{
								OFFSET 23.009392 0.000000 0.000000
								CHANNELS 3 Xrotation Yrotation Zrotation
								JOINT LeftHandThumb1
								{
									OFFSET 3.507191 -2.063065 3.133727
									CHANNELS 3 Xrotation Yrotation Zrotation
									JOINT LeftHandThumb2
									{
										OFFSET 3.101337 -1.790558 1.790558
										CHANNELS 3 Xrotation Yrotation Zrotation
										JOINT LeftHandThumb3
										{
											OFFSET 3.058640 -1.765907 1.765906
											CHANNELS 3 Xrotation Yrotation Zrotation
											End Site
											{
												OFFSET -0.415260 3.926476 -0.049563
											}
										}
									}
								}
								JOINT LeftHandIndex1
								{
									OFFSET 11.334419 -0.901459 3.706815
									CHANNELS 3 Xrotation Yrotation Zrotation
									JOINT LeftHandIndex2
									{
										OFFSET 3.283112 0.000000 0.000000
										CHANNELS 3 Xrotation Yrotation Zrotation
										JOINT LeftHandIndex3
										{
											OFFSET 3.323853 0.000000 0.000000
											CHANNELS 3 Xrotation Yrotation Zrotation
											End Site
											{
												OFFSET -1.135597 3.097809 0.402452
											}
										}
									}
								}
								JOINT LeftHandMiddle1
								{
									OFFSET 11.335861 0.000000 0.000000
									CHANNELS 3 Xrotation Yrotation Zrotation
									JOINT LeftHandMiddle2
									{
										OFFSET 3.410492 0.000000 0.000000
										CHANNELS 3 Xrotation Yrotation Zrotation
										JOINT LeftHandMiddle3
										{
											OFFSET 3.312172 0.000000 0.000000
											CHANNELS 3 Xrotation Yrotation Zrotation
											End Site
											{
												OFFSET -1.150200 3.080154 0.400270
											}
										}
									}
								}
								JOINT LeftHandRing1
								{
									OFFSET 11.514786 -0.013176 -3.003090
									CHANNELS 3 Xrotation Yrotation Zrotation
									JOINT LeftHandRing2
									{
										OFFSET 3.053307 0.000000 0.000000
										CHANNELS 3 Xrotation Yrotation Zrotation
										JOINT LeftHandRing3
										{
											OFFSET 3.295807 0.000000 0.000000
											CHANNELS 3 Xrotation Yrotation Zrotation
											End Site
											{
												OFFSET -1.281006 3.013344 0.375733
											}
										}
									}
								}
								JOINT LeftHandPinky1
								{
									OFFSET 10.518692 -0.960396 -5.730441
									CHANNELS 3 Xrotation Yrotation Zrotation
									JOINT LeftHandPinky2
									{
										OFFSET 2.861649 0.000000 0.000000
										CHANNELS 3 Xrotation Yrotation Zrotation
										JOINT LeftHandPinky3
										{
											OFFSET 2.863380 0.000000 0.000000
											CHANNELS 3 Xrotation Yrotation Zrotation
											End Site
											{
												OFFSET -0.843597 2.711159 0.369971
											}
										}
									}
								}
							}
							JOINT LSleeve
							{
								OFFSET 6.676277 -0.344902 -1.011730
								CHANNELS 3 Xrotation Yrotation Zrotation
								End Site
								{
									OFFSET 0.000000 14.885353 0.000000
								}
							}
						}
					}
				}
				JOINT RightShoulder
				{
					OFFSET -6.197800 13.665199 -4.064700
					CHANNELS 3 Xrotation Yrotation Zrotation
					JOINT RightArm
					{
						OFFSET -7.778100 -0.187103 -1.709300
						CHANNELS 3 Xrotation Yrotation Zrotation
						JOINT RightForeArm
						{
							OFFSET -22.049376 0.000000 0.000000
							CHANNELS 3 Xrotation Yrotation Zrotation
							JOINT RightHand
							{
								OFFSET -23.009392 0.000000 0.000000
								CHANNELS 3 Xrotation Yrotation Zrotation
								JOINT RightHandThumb1
								{
									OFFSET -3.507191 -2.063065 3.133727
									CHANNELS 3 Xrotation Yrotation Zrotation
									JOINT RightHandThumb2
									{
										OFFSET -3.101337 -1.790558 1.790558
										CHANNELS 3 Xrotation Yrotation Zrotation
										JOINT RightHandThumb3
										{
											OFFSET -3.058640 -1.765907 1.765906
											CHANNELS 3 Xrotation Yrotation Zrotation
											End Site
											{
												OFFSET 0.415260 3.926476 -0.049563
											}
										}
									}
								}
								JOINT RightHandIndex1
								{
									OFFSET -11.334419 -0.901459 3.706815
									CHANNELS 3 Xrotation Yrotation Zrotation
									JOINT RightHandIndex2
									{
										OFFSET -3.283112 0.000000 0.000000
										CHANNELS 3 Xrotation Yrotation Zrotation
										JOINT RightHandIndex3
										{
											OFFSET -3.323853 0.000000 0.000000
											CHANNELS 3 Xrotation Yrotation Zrotation
											End Site
											{
												OFFSET 1.135597 3.097809 0.402452
											}
										}
									}
								}
								JOINT RightHandMiddle1
								{
									OFFSET -11.335861 0.000000 0.000000
									CHANNELS 3 Xrotation Yrotation Zrotation
									JOINT RightHandMiddle2
									{
										OFFSET -3.410492 0.000000 0.000000
										CHANNELS 3 Xrotation Yrotation Zrotation
										JOINT RightHandMiddle3
										{
											OFFSET -3.312172 0.000000 0.000000
											CHANNELS 3 Xrotation Yrotation Zrotation
											End Site
											{
												OFFSET 1.150200 3.080154 0.400270
											}
										}
									}
								}
								JOINT RightHandRing1
								{
									OFFSET -11.514786 -0.013176 -3.003090
									CHANNELS 3 Xrotation Yrotation Zrotation
									JOINT RightHandRing2
									{
										OFFSET -3.053307 0.000000 0.000000
										CHANNELS 3 Xrotation Yrotation Zrotation
										JOINT RightHandRing3
										{
											OFFSET -3.295807 0.000000 0.000000
											CHANNELS 3 Xrotation Yrotation Zrotation
											End Site
											{
												OFFSET 1.281006 3.013344 0.375733
											}
										}
									}
								}
								JOINT RightHandPinky1
								{
									OFFSET -10.518692 -0.960396 -5.730441
									CHANNELS 3 Xrotation Yrotation Zrotation
									JOINT RightHandPinky2
									{
										OFFSET -2.861649 0.000000 0.000000
										CHANNELS 3 Xrotation Yrotation Zrotation
										JOINT RightHandPinky3
										{
											OFFSET -2.863380 0.000000 0.000000
											CHANNELS 3 Xrotation Yrotation Zrotation
											End Site
											{
												OFFSET 0.843597 2.711159 0.369971
											}
										}
									}
								}
							}
							JOINT RSleeve
							{
								OFFSET -6.676277 -0.344902 -1.011730
								CHANNELS 3 Xrotation Yrotation Zrotation
								End Site
								{
									OFFSET 0.000000 14.885353 0.000000
								}
							}
						}
					}
				}
				JOINT Backpack
				{
					OFFSET 0.000000 -2.471497 36.677502
					CHANNELS 3 Xrotation Yrotation Zrotation
					End Site
					{
						OFFSET 0.000000 20.427315 0.000000
					}
				}
				JOINT Hood
				{
					OFFSET 0.000000 18.754097 -10.431000
					CHANNELS 3 Xrotation Yrotation Zrotation
					JOINT Hood1
					{
						OFFSET 0.000000 -5.011002 -7.685901
						CHANNELS 3 Xrotation Yrotation Zrotation
						End Site
						{
							OFFSET 0.000000 9.175140 0.000000
						}
					}
				}
				JOINT LHoodieString
				{
					OFFSET 5.250500 16.397697 3.089900
					CHANNELS 3 Xrotation Yrotation Zrotation
					JOINT LHoodieString1
					{
						OFFSET 0.257700 -6.364304 3.694600
						CHANNELS 3 Xrotation Yrotation Zrotation
						JOINT LHoodieString2
						{
							OFFSET 0.000000 -9.643799 2.679100
							CHANNELS 3 Xrotation Yrotation Zrotation
							End Site
							{
								OFFSET 0.000000 10.009018 0.000000
							}
						}
					}
				}
				JOINT RHoodieString
				{
					OFFSET -5.250500 16.397697 3.089900
					CHANNELS 3 Xrotation Yrotation Zrotation
					JOINT RHoodieString1
					{
						OFFSET -0.257700 -6.364304 3.694600
						CHANNELS 3 Xrotation Yrotation Zrotation
						JOINT RHoodieString2
						{
							OFFSET 0.000000 -9.643799 2.679100
							CHANNELS 3 Xrotation Yrotation Zrotation
							End Site
							{
								OFFSET 0.000000 10.009018 0.000000
							}
						}
					}
				}
			}
			JOINT LBackpack_Strap
			{
				OFFSET 15.223200 -7.719803 -6.610900
				CHANNELS 3 Xrotation Yrotation Zrotation
				End Site
				{
					OFFSET 0.000000 16.040596 0.000000
				}
			}
			JOINT RBackpack_Strap
			{
				OFFSET -15.223000 -7.719803 -6.610900
				CHANNELS 3 Xrotation Yrotation Zrotation
				End Site
				{
					OFFSET 0.000000 16.040596 0.000000
				}
			}
		}
	}
	JOINT BoyFacialAnim_Joint
	{
		OFFSET 1.000000 -82.208099 -1.550900
		CHANNELS 3 Xrotation Yrotation Zrotation
		End Site
		{
			OFFSET 0.000000 30.012791 0.000000
		}
	}
}
MOTION
Frames: 4
Frame Time: 0.033333
0.350256 76.215912 -0.441778 13.111987 -13.518612 -0.904695 -0.000000 0.000000 -0.000000 -49.959101 0.721352 18.113081 41.601169 -1.790095 6.222783 -4.900337 1.605500 -17.287491 0.000000 0.000000 -0.000000 0.000000 0.000000 -0.000000 -0.000000 -0.000000 -0.000001 -39.962942 -8.774044 -19.807065 40.506474 5.481208 -0.148431 -14.107235 -2.030452 11.500562 0.000000 0.000001 0.000000 0.000000 0.000001 0.000000 0.000002 0.000001 -0.000001 13.297963 -1.682647 1.926770 9.586135 -1.518637 1.190428 9.615088 -1.264354 1.214435 -8.896001 2.643594 -2.094905 -19.920038 10.515768 -0.941645 0.000000 -0.000001 0.000000 0.000000 -0.000001 0.000000 0.000000 -0.000001 0.000000 3.538642 -16.101485 -8.555227 -23.386535 -8.120256 -50.516759 0.018056 -89.794776 0.017639 45.504698 8.484595 6.460211 -1.528056 -2.084215 5.288391 4.850899 19.307765 1.572664 -0.000002 -0.000001 -0.000001 0.671840 2.971437 -25.475574 0.097723 1.158259 -9.644375 -0.000001 -0.000002 -0.000002 -16.471210 -17.341586 -42.680404 0.001717 0.153846 -1.274856 -0.000001 0.000003 0.000001 -16.469896 -17.340121 -42.695974 0.001658 0.151910 -1.258870 -0.000002 -0.000002 -0.000001 -13.647313 -14.329199 -41.414958 -0.015046 -3.902356 -1.769709 -0.000002 -0.000004 -0.000003 -0.000000 0.000002 0.000004 -2.111959 8.331129 11.121888 -11.608993 31.914756 48.657851 0.000073 80.028541 -0.000111 27.467415 10.482448 -2.116522 1.682934 -11.561544 12.585967 5.747775 -21.249777 -1.053395 0.000001 0.000003 -0.000006 0.840797 -3.319480 28.420064 0.325011 -2.104870 17.552842 0.000001 -0.000001 0.000003 0.840808 -3.319479 28.420053 0.325001 -2.104875 17.552843 0.000002 -0.000006 0.000001 0.840797 -3.319466 28.420052 0.325003 -2.104884 17.552837 -0.000002 -0.000000 0.000004 0.840791 -3.319463 28.420052 0.325007 -2.104881 17.552833 0.000001 0.000000 0.000000 -0.000002 -0.000000 -0.000001 0.000002 -0.000001 0.000002 0.000002 -0.000001 0.000002 0.000002 -0.000001 0.000002 0.000002 -0.000001 0.000002 0.000002 -0.000001 0.000002 -0.000001 0.000001 -0.000001 0.000002 -0.000001 0.000002 0.000002 -0.000001 0.000002 -0.000001 0.000001 -0.000001 -0.000000 -0.000001 0.000000 -0.000000 -0.000001 0.000000 -0.000000 0.000000 -0.000000 
0.241827 76.198814 -0.483145 13.042330 -13.568044 -0.859966 0.000000 0.000001 -0.000000 -49.818502 0.738506 18.135551 41.485159 -1.782739 6.306976 -4.816900 1.607534 -17.448270 -0.000000 0.000000 -0.000000 -0.000000 0.000000 -0.000000 0.000000 0.000000 0.000002 -40.036001 -8.836773 -19.912759 40.688636 5.691728 -0.007035 -14.241164 -2.027646 11.400411 0.000000 -0.000000 0.000000 0.000000 -0.000000 0.000000 0.000000 0.000001 0.000001 13.273300 -1.680566 1.945677 9.564955 -1.518638 1.201993 9.593757 -1.265695 1.226487 -8.911264 2.652882 -2.126388 -19.990044 10.518097 -0.926883 0.000001 0.000000 -0.000000 0.000001 0.000000 -0.000000 0.000001 0.000000 -0.000000 3.539203 -16.095394 -8.563263 -23.475128 -8.024787 -50.585549 -0.001559 -89.699235 -0.001545 45.600754 8.456975 6.480275 -1.528056 -2.084215 5.288389 4.850899 19.307767 1.572664 -0.000000 -0.000000 0.000000 0.671842 2.971439 -25.475573 0.097725 1.158262 -9.644382 -0.000003 -0.000000 -0.000004 -16.471204 -17.341586 -42.680404 0.001715 0.153846 -1.274852 -0.000000 0.000002 -0.000001 -16.469896 -17.340115 -42.695967 0.001657 0.151910 -1.258870 -0.000001 0.000000 -0.000002 -13.647317 -14.329197 -41.414965 -0.015045 -3.902352 -1.769709 -0.000003 0.000002 -0.000000 -0.000001 0.000000 0.000002 -2.121971 8.300725 11.115049 -11.550471 31.920189 48.719473 0.000000 79.993270 0.000005 27.482222 10.495228 -2.136671 1.682930 -11.561539 12.585967 5.747767 -21.249782 -1.053388 -0.000003 0.000001 -0.000002 0.840799 -3.319478 28.420060 0.325006 -2.104870 17.552837 0.000000 0.000001 0.000002 0.840807 -3.319477 28.420053 0.324999 -2.104867 17.552845 0.000001 0.000003 0.000000 0.840803 -3.319469 28.420053 0.325002 -2.104879 17.552833 0.000001 0.000000 0.000000 0.840799 -3.319465 28.420053 0.325007 -2.104878 17.552826 0.000001 -0.000002 -0.000000 0.000003 -0.000001 0.000000 -0.000002 0.000000 0.000000 -0.000002 0.000000 0.000000 -0.000002 0.000000 0.000000 -0.000002 0.000000 0.000000 -0.000002 0.000000 0.000000 0.000002 -0.000000 -0.000000 -0.000002 0.000000 0.000000 -0.000002 0.000000 0.000000 0.000002 -0.000000 -0.000000 0.000002 -0.000001 0.000001 0.000002 -0.000001 0.000001 0.000000 0.000001 -0.000000 
0.124902 76.182632 -0.520330 13.049915 -13.636936 -0.827402 0.000000 0.000001 -0.000000 -49.797506 0.759913 18.237114 41.421672 -1.847709 6.318541 -4.741247 1.594680 -17.440360 -0.000000 0.000000 -0.000000 -0.000000 0.000000 -0.000000 0.000000 -0.000000 -0.000001 -40.155867 -8.853978 -19.938284 40.863956 5.828470 0.122758 -14.361374 -2.021991 11.296465 -0.000000 -0.000000 0.000000 -0.000000 -0.000000 0.000000 -0.000000 0.000003 -0.000001 13.244529 -1.675046 1.957046 9.540932 -1.514719 1.209610 9.569495 -1.263229 1.234401 -8.932334 2.653149 -2.135735 -20.065897 10.505267 -0.911992 0.000000 0.000000 -0.000000 0.000000 0.000000 -0.000000 0.000000 0.000000 -0.000000 3.536873 -16.085195 -8.561654 -23.570442 -7.957894 -50.700060 0.017363 -89.604808 0.017206 45.653360 8.436359 6.506095 -1.528053 -2.084213 5.288388 4.850901 19.307765 1.572665 -0.000001 0.000001 0.000002 0.671839 2.971436 -25.475576 0.097726 1.158259 -9.644383 -0.000002 0.000001 -0.000003 -16.471203 -17.341584 -42.680404 0.001719 0.153845 -1.274850 -0.000000 -0.000001 -0.000000 -16.469898 -17.340115 -42.695974 0.001663 0.151910 -1.258868 0.000000 -0.000000 -0.000002 -13.647314 -14.329197 -41.414965 -0.015047 -3.902349 -1.769712 -0.000002 -0.000001 -0.000004 0.000001 -0.000000 0.000004 -2.123242 8.289778 11.113112 -11.512757 31.897106 48.737296 0.000002 79.937331 -0.000000 27.497542 10.519619 -2.149217 1.682930 -11.561543 12.585965 5.747773 -21.249782 -1.053393 -0.000000 0.000000 0.000001 0.840794 -3.319479 28.420057 0.325007 -2.104866 17.552835 -0.000000 0.000001 0.000002 0.840803 -3.319474 28.420048 0.325001 -2.104869 17.552845 0.000000 -0.000001 0.000001 0.840795 -3.319467 28.420052 0.325003 -2.104881 17.552838 -0.000002 0.000002 0.000006 0.840788 -3.319463 28.420052 0.325006 -2.104881 17.552835 -0.000000 0.000000 -0.000005 -0.000001 -0.000003 -0.000001 0.000001 0.000001 -0.000001 0.000001 0.000001 -0.000001 0.000001 0.000001 -0.000001 0.000001 0.000001 -0.000001 0.000001 0.000001 -0.000000 0.000001 -0.000001 0.000001 0.000001 0.000001 -0.000001 0.000001 0.000001 -0.000000 0.000001 -0.000001 0.000001 0.000003 -0.000001 0.000000 0.000003 -0.000001 0.000000 0.000000 0.000001 -0.000000 
0.040070 76.175217 -0.539223 12.995874 -13.696466 -0.830167 -0.000000 0.000000 0.000000 -49.757255 0.818446 18.374722 41.423482 -1.991338 6.263756 -4.722823 1.578586 -17.301448 -0.000000 0.000000 -0.000000 -0.000000 0.000000 -0.000000 -0.000000 -0.000000 -0.000002 -40.182037 -8.887416 -19.930948 40.989601 5.928775 0.185420 -14.431353 -2.014004 11.211708 0.000000 0.000002 -0.000000 0.000000 0.000002 -0.000000 0.000001 -0.000002 -0.000003 13.212869 -1.666456 1.962344 9.514985 -1.507987 1.212718 9.543341 -1.257656 1.237595 -8.958583 2.645591 -2.120796 -20.136731 10.485998 -0.899106 0.000000 0.000000 0.000000 0.000000 0.000000 0.000000 0.000000 0.000000 0.000000 3.532039 -16.075774 -8.547669 -23.654637 -7.938919 -50.857793 -0.010455 -89.509274 -0.010666 45.648842 8.427666 6.540573 -1.528056 -2.084213 5.288387 4.850897 19.307763 1.572664 0.000001 -0.000000 -0.000001 0.671841 2.971438 -25.475586 0.097722 1.158257 -9.644382 0.000001 0.000002 -0.000003 -16.471208 -17.341587 -42.680408 0.001715 0.153850 -1.274850 -0.000002 -0.000001 0.000002 -16.469900 -17.340117 -42.695977 0.001663 0.151908 -1.258868 0.000003 0.000000 -0.000000 -13.647318 -14.329202 -41.414961 -0.015051 -3.902358 -1.769708 -0.000001 0.000001 -0.000002 0.000000 -0.000001 -0.000001 -2.114139 8.304162 11.117362 -11.508308 31.844114 48.698798 0.000048 79.853545 -0.000068 27.511512 10.558602 -2.147588 1.682928 -11.561540 12.585968 5.747774 -21.249779 -1.053395 -0.000002 0.000002 -0.000001 0.840797 -3.319479 28.420059 0.325008 -2.104874 17.552843 0.000001 0.000004 0.000002 0.840806 -3.319476 28.420052 0.324999 -2.104872 17.552849 0.000000 -0.000002 -0.000001 0.840797 -3.319467 28.420050 0.325003 -2.104883 17.552837 -0.000002 -0.000002 -0.000003 0.840790 -3.319461 28.420050 0.325011 -2.104884 17.552828 0.000001 -0.000002 0.000002 -0.000001 -0.000001 0.000001 0.000001 -0.000001 0.000000 0.000001 -0.000001 0.000000 0.000001 -0.000001 0.000000 0.000001 -0.000001 0.000000 0.000001 -0.000001 -0.000000 0.000001 0.000000 0.000000 0.000001 -0.000001 0.000000 0.000001 -0.000001 -0.000000 0.000001 0.000000 0.000000 -0.000003 -0.000000 0.000001 -0.000003 -0.000000 0.000001 -0.000000 0.000000 0.000000 
